<svg viewBox="0 0 300 60" fill="none" xmlns="http://www.w3.org/2000/svg">
  <style>
    .gold { fill: #D4AF37; }
  </style>
  <g class="gold">
    <path d="M28 10h11c3.7 0 6.6.7 8.1 2.2 1.5 1.5 2.2 3.7 2.2 6.6 0 2.2-.7 4.1-2.2 5.6-.7.7-1.7 1.2-3 1.5v.3c1.8.3 3.2 1.2 4.1 2.2 1.2 1.5 1.8 3.2 1.8 5.6 0 3.2-1.1 5.6-3.2 7.1C44.4 42.6 41.2 43.8 37 43.8H28V10zm5.9 14h5.1c1.8 0 3.2-.3 4.1-1.1.7-.7 1.1-1.8 1.1-3.2 0-1.5-.4-2.6-1.1-3.2-.7-.7-2.2-1.1-4.1-1.1h-5.1v8.6zm0 14.7h5.9c2.2 0 3.7-.3 4.4-1.1 1.1-.7 1.5-2.2 1.5-3.7 0-1.8-.3-2.9-1.1-3.7-1.1-.7-2.6-1.1-4.7-1.1h-6v9.6z"/>
    <path d="M72 10h5.6l11.6 33.8h-6.3l-2.6-8H69.4l-2.6 8H60.5L72 10zm7.5 21l-3.3-10.3c-.7-2.2-1.2-4.1-1.5-5.9h-.3c-.3 1.8-.8 3.7-1.5 5.9L69.6 31h9.9z"/>
    <path d="M102 10h5.9v21.7c0 2.6.4 4.5 1.1 5.9 1.1 1.8 3 2.6 5.6 2.6 2.6 0 4.5-.8 5.6-2.6.7-1.4 1.1-3.3 1.1-5.9V10h5.9v21.7c0 4.5-.7 7.9-2.2 10.1s-3.7 3.3-7.5 3.3c-3.7 0-6.7-1.1-8.2-3.3-1.5-2.2-2.2-5.6-2.2-10.1V10z"/>
    <path d="M142 10h5.9v28.8H162V43.8h-20V10z"/>
    <path d="M172 10h5.9V43.8h-5.9V10z"/>
    <path d="M200 10h5.6l11.6 33.8h-6.3l-2.6-8H197.4l-2.6 8H188.5L200 10zm7.5 21l-3.3-10.3c-.7-2.2-1.2-4.1-1.5-5.9h-.3c-.3 1.8-.8 3.7-1.5 5.9L197.6 31h9.9z"/>
  </g>
</svg>